<svg height="512" width="342" xmlns="http://www.w3.org/2000/svg"><path d="m179.3003387 209.8181458c14.2629089-20.3421631 31.0978088-41.8534241 45.1268921-42.3210602 34.6050568-2.3381805 70.8468781-.2338257 89.3184967 17.0687103 6.5385132 6.1246948 23.6156311 18.0039978 26.1876221 33.2021637 6.4292603 37.9910278-2.4251709 99.143692-25.2523499 139.3555756-22.1161499 38.9593201-96.0460815 54.7121887-96.0460815 54.7121887-15.2624512 2.8874817-32.9061279 4.9056091-43.1061249 14.6437073-12.0016479 11.4581604-13.1999512 29.0811462-13.1999512 40.8373718 0 7.0245972 3.4214935 28.7842712 17.737442 33.2061462 9.3114472 2.8760987 7.4249726 11.4770508 7.4249726 11.4770508h-128.3023491c.093338-5.2269897 8.5322304-10.9121704 15.9894676-20.1348877 8.3139572-10.2822876 15.9105988-24.2142639 19.7400894-31.3867493 4.3882141-8.2189331 3.7146454-17.0759583 3.7146454-17.0759583-3.3264236-22.5920105-39.7490692-45.5945435-63.3646927-58.4545288-21.4042511-11.6557922-35.9620743-23.8578186-35.2429161-31.2651672 1.5621892-16.0905457 45.7266579-30.8702393 67.0421677-57.5856934 17.5363541-21.9789124 18.2130203-49.9214935 18.2130203-49.9214935-.4792099-18.9287567.258606-25.3094635-6.0544815-35.305191s-12.8015366-11.2232666-14.905899-25.2523499c-2.1043663-14.0290833-17.3609924-11.2232666-17.3609924-11.2232666l-30.1625309 8.7681732-1.4029083-1.5782623s13.5985279-17.1245728 20.6683254-26.5509796c2.3585968-3.1447906 1.9535713-11.5029144 1.9535713-11.5029144-2.3131638-5.3359222-48.422226-36.066391-31.0393467-83.8237762 15.735384-43.2310791 55.4148788-55.882515 94.4624939-59.3897858 68.3018723-6.1348982 103.3475876 77.9783249 63.516243 143.9928741 0 0-22.2473602 30.4353943-23.124176 1.6757812-.799881-26.23629-13.853714-36.6509857-13.853714-36.6509857s-3.8580017-2.8642731-3.3903656 9.9957199 3.7410889 133.2763062 10.054184 155.9566345c2.0929565 7.519165 6.2288666 14.0414124 13.7952576 3.0396423 15.2564295-22.1833113 13.6266078-43.9242324 30.8639887-68.5086897zm49.1881867 163.6313171c4.3371582-17.1514893-.6259918-38.6007385-8.6257172-39.9919739-6.0118713-1.0455627-10.9781952 5.7404175-10.9781952 19.3424988 0 16.0215149 1.6094971 33.0887451-6.0118561 38.4236755-7.841568 5.4891052-7.424118 11.7849121-6.2732544 12.8078918 2.3524628 2.091095 26.1385499-7.8415527 31.8890229-30.5820922z"/></svg>